<?xml version="1.0" encoding="UTF-8" standalone="no"?>
<svg
   width="1200"
   height="1200"
   version="1.1"
   id="svg3"
   sodipodi:docname="symbol.svg"
   inkscape:version="1.4.2 (ebf0e940, 2025-05-08)"
   xmlns:inkscape="http://www.inkscape.org/namespaces/inkscape"
   xmlns:sodipodi="http://sodipodi.sourceforge.net/DTD/sodipodi-0.dtd"
   xmlns="http://www.w3.org/2000/svg"
   xmlns:svg="http://www.w3.org/2000/svg">
  <defs
     id="defs3" />
  <sodipodi:namedview
     id="namedview3"
     pagecolor="#ffffff"
     bordercolor="#000000"
     borderopacity="0.25"
     inkscape:showpageshadow="2"
     inkscape:pageopacity="0.0"
     inkscape:pagecheckerboard="0"
     inkscape:deskcolor="#d1d1d1"
     inkscape:zoom="0.1426488"
     inkscape:cx="3.5051118"
     inkscape:cy="1048.0284"
     inkscape:window-width="1728"
     inkscape:window-height="1080"
     inkscape:window-x="0"
     inkscape:window-y="37"
     inkscape:window-maximized="0"
     inkscape:current-layer="g1" />
  <g
     transform="scale(58.01095221981155) translate(1.0342607498168945, 1.7333449125289913)"
     id="g3">
    <g
       fill="#ff5722"
       id="g2">
      <defs
         id="defs1" />
      <g
         id="g1">
        <path
           class="fil0"
           d="M18.6172 7.71354c-2.62371,1.66491 -3.01252,0.119901 -3.82132,3.33302 0.147701,-0.250001 0.335902,-0.124601 0.557103,-0.314202 -0.0840005,0.146201 -0.257801,0.398502 -0.0684004,1.23241 0,-0.477503 0.212401,-0.827104 0.387502,-0.883805 0.456602,0.233301 0.124601,1.25271 -0.253001,1.35971 -0.789404,0.223701 -2.04861,-1.53521 -1.17701,-2.52071 -0.396902,-0.0736004 -1.65901,0.104901 -2.07271,-0.489403 -2.93932,-2.26381 -6.90034,-1.10811 -8.98325,-3.83872 1.68691,3.94622 4.90113,3.10032 7.13544,4.40972 -1.48131,0.362202 -2.82472,0.0317002 -3.28422,-0.697104 0.546403,1.63921 2.69641,1.98061 4.16622,2.19221 -0.644603,0.314802 -1.92161,0.123601 -2.53671,-0.134301 1.29901,1.37691 2.49551,1.56651 4.36772,1.29351 -0.520203,0.549103 -1.27781,0.651604 -1.99901,0.621503 0.921105,0.336002 1.33461,0.604103 2.33501,0.504003 -1.62931,2.72291 -5.04883,2.54121 -6.87074,0.772804 0.0575003,0.216501 0.951205,1.28481 2.15021,1.61271 -4.14512,-0.469303 -5.61083,-2.43801 -5.61083,-6.45083 -0.421702,1.47571 -0.632603,2.00091 -0.319202,3.51102 -2.37721,-2.37721 -1.20001,-7.26764 0.730504,-8.63475 -1.00681,0.207301 -1.35791,0.723404 -1.99911,1.44471 0.543703,-2.71811 3.49732,-5.06493 6.19883,-4.36772 -0.662104,-0.585703 -1.20301,-0.520803 -2.06621,-0.520803 1.15941,-0.579703 4.63092,-1.56131 5.48893,-0.0225001 -0.111801,-0.410602 -0.565203,-0.646603 -0.475203,-0.628303 0.972505,0.197901 1.94501,0.556703 2.93212,1.02041 -6.08233,-4.02542 -14.1047,0.442802 -13.4973,7.67424 0.832504,9.90965 16.0245,10.8829 16.6345,1.58091 0.817804,-1.20731 0.782404,-2.19341 1.95011,-3.05972z"
           style="fill:#ff3d00;fill-opacity:1"
           id="path1" />
      </g>
    </g>
  </g>
</svg>
