<?xml version="1.0" encoding="UTF-8" standalone="no"?>
<svg
   version="1.1"
   width="3129.3103"
   height="800"
   viewBox="0 0 3129.3103 800.00001"
   id="svg4"
   sodipodi:docname="LOGO 加康 (transparent background).svg"
   inkscape:version="1.4.2 (ebf0e940, 2025-05-08)"
   inkscape:export-filename="LOGO 加康 (transparent background).svg"
   inkscape:export-xdpi="1200"
   inkscape:export-ydpi="1200"
   xmlns:inkscape="http://www.inkscape.org/namespaces/inkscape"
   xmlns:sodipodi="http://sodipodi.sourceforge.net/DTD/sodipodi-0.dtd"
   xmlns="http://www.w3.org/2000/svg"
   xmlns:svg="http://www.w3.org/2000/svg">
  <sodipodi:namedview
     id="namedview1"
     pagecolor="#ffffff"
     bordercolor="#000000"
     borderopacity="0.25"
     inkscape:showpageshadow="2"
     inkscape:pageopacity="0.0"
     inkscape:pagecheckerboard="0"
     inkscape:deskcolor="#d1d1d1"
     inkscape:zoom="0.2972274"
     inkscape:cx="1547.6366"
     inkscape:cy="477.74868"
     inkscape:window-width="1544"
     inkscape:window-height="873"
     inkscape:window-x="0"
     inkscape:window-y="34"
     inkscape:window-maximized="0"
     inkscape:current-layer="svg4" />
  <defs
     id="defs4">
    <defs
       id="SvgjsDefs1051" />
  </defs>
  <rect
     style="fill:#ffffff;stroke-width:0.96;stroke-linecap:round;stroke-linejoin:round;paint-order:stroke markers fill;fill-opacity:1"
     id="rect1"
     width="2706.6895"
     height="625.38422"
     x="211.31042"
     y="87.307892"
     rx="64.655174"
     ry="64.655174" />
  <g
     id="SvgjsG1052"
     featureKey="rootContainer"
     fill="#ffffff"
     transform="matrix(6.4655172,0,0,6.4655172,64.655172,64.655172)" />
  <g
     id="SvgjsG1055"
     featureKey="inlineSymbolFeature-0"
     transform="matrix(24.063898,0,0,24.063898,1522.3909,192.82106)"
     fill="#000000">
    <defs
       id="defs2" />
    <g
       id="g3">
      <path
         class="fil0"
         d="m 18.6172,7.71354 c -2.62371,1.66491 -3.01252,0.119901 -3.82132,3.33302 0.147701,-0.250001 0.335902,-0.124601 0.557103,-0.314202 -0.084,0.146201 -0.257801,0.398502 -0.0684,1.23241 0,-0.477503 0.212401,-0.827104 0.387502,-0.883805 0.456602,0.233301 0.124601,1.25271 -0.253001,1.35971 -0.789404,0.223701 -2.04861,-1.53521 -1.17701,-2.52071 -0.396902,-0.0736 -1.65901,0.104901 -2.07271,-0.489403 C 9.2300436,7.16675 5.2690236,8.32245 3.1861136,5.59184 c 1.68691,3.94622 4.90113,3.10032 7.1354404,4.40972 -1.4813104,0.362202 -2.8247204,0.0317 -3.2842204,-0.697104 0.546403,1.63921 2.69641,1.98061 4.1662204,2.19221 -0.644603,0.314802 -1.9216104,0.123601 -2.5367104,-0.134301 1.29901,1.37691 2.4955104,1.56651 4.3677204,1.29351 -0.520203,0.549103 -1.27781,0.651604 -1.99901,0.621503 0.921105,0.336002 1.33461,0.604103 2.33501,0.504003 -1.62931,2.72291 -5.0488304,2.54121 -6.8707404,0.772804 0.0575,0.216501 0.951205,1.28481 2.15021,1.61271 -4.14512,-0.469303 -5.61083,-2.43801 -5.61083,-6.45083 -0.421702,1.47571 -0.632603,2.00091 -0.319202,3.51102 -2.37721,-2.37721 -1.20001,-7.26764 0.730504,-8.63475 -1.00681,0.207301 -1.35791,0.723404 -1.99911,1.44471 0.543703,-2.71811 3.49732,-5.06493 6.19883,-4.36772 -0.662104,-0.585703 -1.20301,-0.520803 -2.06621,-0.520803 1.15941,-0.579703 4.6309204,-1.56131 5.4889304,-0.0225 -0.111801,-0.410602 -0.565203,-0.646603 -0.475203,-0.628303 0.972505,0.197901 1.94501,0.556703 2.93212,1.02041 -6.0823304,-4.02542 -14.1047004,0.442802 -13.4973004,7.67424 0.832504,9.90965 16.0245004,10.8829 16.6345004,1.58091 0.817804,-1.20731 0.782404,-2.19341 1.95011,-3.05972 z"
         style="fill:#ff3d00;fill-opacity:1"
         id="path3" />
    </g>
  </g>
  <g
     id="SvgjsG1056"
     featureKey="nameRightFeature-0"
     transform="matrix(15.875609,0,0,15.875609,2032.6083,197.58598)"
     fill="#000000">
    <path
       d="m 6,8.04 v 5 h 1.42 c 0.18666,0 0.28,-0.1 0.28,-0.3 v -4.4 c 0,-0.2 -0.09334,-0.3 -0.28,-0.3 z m 4.56,6.06 c 0,0.32 -0.11,0.61334 -0.33,0.88 -0.22,0.26666 -0.54334,0.4 -0.97,0.4 L 10.78,20 h -3 L 6.38,15.38 H 6 V 20 H 3.1 V 5.5 h 5.5 c 0.68,0 1.1767,0.17 1.49,0.51 0.3133,0.34 0.47,0.79666 0.47,1.37 z M 11.8,5.5 h 5.64 l 0.5,2.7 h -3.16 v 3.44 h 2.4 v 2.5 h -2.4 v 3.16 h 3.04 L 17.32,20 H 11.8 Z M 26.44,20 H 23.48 V 14.2 H 21.9 V 20 H 18.94 V 5.5 h 2.96 v 6.2 h 1.58 V 5.5 h 2.96 z M 30.42,18.2 30.16,20 H 27.24 L 29.86,5.5 h 3.1 L 35.58,20 H 32.66 L 32.4,18.2 Z m 0.32,-2.3 h 1.34 l -0.66,-5.14 z m 8.52,-7.86 2e-5,3.8 h 1.36 c 0.10666,0 0.19332,-0.03 0.25998,-0.09 0.06666,-0.06 0.1,-0.15666 0.1,-0.29 V 8.32 c 0,-0.18666 -0.08666,-0.28 -0.26,-0.28 z m 1.76,6.42 c 0,-0.16 -0.04,-0.27002 -0.12,-0.33002 -0.08,-0.06 -0.18666,-0.09 -0.32,-0.09 h -1.32 v 3.42 h 1.46 c 0.12,0 0.2,-0.02334 0.24,-0.07 C 41,17.34332 41.02,17.26666 41.02,17.16 Z m 2.74,-3.22 c 0,0.36 -0.07,0.67 -0.21,0.93 -0.14,0.26 -0.40334,0.44334 -0.79,0.55 0.4,0.02666 0.69,0.16666 0.87,0.42 0.18,0.25334 0.27,0.54 0.27,0.86 v 3.76 c 0,0.8 -0.16666,1.3733 -0.5,1.72 C 43.06666,19.8267 42.48,20 41.64,20 H 36.38 V 5.5 h 5.66 c 0.57334,0 1.0033,0.16 1.29,0.48 0.2867,0.32 0.43,0.74666 0.43,1.28 z"
       id="path4" />
  </g>
  <g
     id="SvgjsG1054"
     featureKey="nameLeftFeature-0"
     transform="matrix(10.877144,0,0,10.877144,378.31549,179.72043)"
     fill="#000000">
    <path
       d="M 6.66,14.3 H 3.56 V 20 H 2.02 V 5.42 H 6.9 c 3.56,-0.02 5.12,2.12 5.12,4.38 0,1.26 -0.48,2.36 -1.34,3.18 C 9.8,13.8 8.38,14.3 6.66,14.3 Z M 6.78,6.86 H 3.56 v 6.02 H 6.7 c 1.3,0 2.32,-0.38 2.9,-0.98 0.58,-0.58 0.86,-1.3 0.86,-2.06 0,-1.42 -0.82,-2.98 -3.68,-2.98 z M 24.54,20 v -6.68 h -8.3 V 20 H 14.7 V 5.42 h 1.54 v 6.46 h 8.3 V 5.42 h 1.54 V 20 Z m 19.22,-7.32 c 0,1.38 -0.32,2.64 -0.94,3.78 -0.64,1.14 -1.52,2.04 -2.64,2.7 -1.14,0.66 -2.38,1 -3.78,1 -1.02,0 -1.98,-0.2 -2.9,-0.58 C 32.6,19.2 31.82,18.68 31.18,18 30.54,17.36 30.04,16.58 29.66,15.66 29.3,14.74 29.1,13.78 29.1,12.76 c 0,-1.38 0.32,-2.64 0.96,-3.78 0.62,-1.14 1.5,-2.06 2.64,-2.72 1.12,-0.66 2.38,-0.98 3.76,-0.98 1.02,0 1.98,0.18 2.9,0.56 0.9,0.4 1.68,0.92 2.32,1.56 0.64,0.68 1.16,1.46 1.52,2.36 0.38,0.92 0.56,1.88 0.56,2.92 z m -1.58,0.08 c 0,-1.64 -0.6,-3.16 -1.6,-4.26 -1,-1.1 -2.5,-1.8 -4.18,-1.8 -1.08,0 -2.06,0.28 -2.94,0.8 -0.88,0.56 -1.56,1.28 -2.04,2.18 -0.48,0.92 -0.72,1.92 -0.72,3 0,1.62 0.6,3.16 1.6,4.24 1,1.1 2.5,1.8 4.16,1.8 1.08,0 2.06,-0.28 2.94,-0.82 0.9,-0.52 1.58,-1.26 2.06,-2.16 0.48,-0.9 0.72,-1.9 0.72,-2.98 z M 46.78,20 V 5.42 h 9.12 v 1.42 h -7.58 v 5.04 h 6.94 v 1.42 h -6.94 v 5.28 h 7.66 V 20 Z M 69.52,5.42 h 1.5 V 20 H 69.36 L 60.66,7.6 V 20 H 59.14 V 5.42 h 1.78 l 8.6,12.26 z M 75.08,20 V 5.42 h 1.54 V 20 Z m 14.94,0 -4.74,-6.38 -4.7,6.38 h -1.8 l 5.6,-7.46 -5.34,-7.12 h 1.78 l 4.5,6 4.46,-6 h 1.78 l -5.34,7.1 5.58,7.48 z"
       id="path2" />
  </g>
  <path
     style="font-weight:600;font-size:133.333px;line-height:1.2;font-family:'Hiragino Kaku Gothic Pro';-inkscape-font-specification:'Hiragino Kaku Gothic Pro Semi-Bold';text-align:center;letter-spacing:150px;text-anchor:middle;fill:#ff3d00;stroke-width:0.96;stroke-linecap:round;stroke-linejoin:round;paint-order:stroke markers fill"
     d="m 438.42948,461.91522 c 0.4,-11.73331 0.4,-11.73331 0.4,-14.26663 0.13333,-4.39999 0.26666,-5.99999 0.8,-8.79998 h -15.99996 c 0.53333,3.33333 0.79999,6.53332 0.79999,11.86664 0,7.06665 0,7.33331 -0.13333,11.19997 h -5.99998 c -6.93332,0 -11.06664,-0.26667 -14.66663,-0.8 v 15.59996 c 3.86665,-0.53333 7.73331,-0.8 13.46663,-0.8 h 6.66665 c -1.06666,15.99996 -2.93333,26.93327 -6.26665,38.26657 -3.99999,13.46663 -9.33331,23.33327 -17.73329,33.19992 4.39999,4.13332 7.33332,7.73331 10.93331,13.59996 10.26664,-13.46663 16.13329,-25.19993 20.39994,-40.79989 3.73333,-13.59997 5.73332,-26.2666 6.79999,-44.26656 h 12.79996 c -0.26666,19.46662 -0.26666,19.46662 -0.79999,31.19992 -0.8,14.79996 -2,26.53327 -3.46666,31.59992 -1.2,4.39999 -2.4,5.33332 -6.13332,5.33332 -3.06666,0 -7.99998,-0.66666 -13.06663,-1.59999 1.73333,5.99998 2.13332,7.73331 2.39999,14.26663 5.73332,0.66666 10.66664,0.93333 13.99997,0.93333 10.9333,0 14.79996,-3.46666 17.19995,-15.19996 2.4,-11.33331 3.73332,-31.46659 3.99999,-59.33319 0.13333,-16.79995 0.13333,-17.06662 0.66667,-21.73327 -4.13333,0.4 -7.99998,0.53333 -14.9333,0.53333 z m 49.19987,86.39978 h 19.59995 v 9.46664 h 15.06663 c -0.53333,-4.26666 -0.8,-8.39998 -0.8,-14.79996 v -76.39981 c 0,-6.13331 0.13334,-9.59997 0.66667,-13.99996 -3.73333,0.53333 -6.66665,0.66666 -11.99997,0.66666 h -25.33327 c -5.06665,0 -8.13331,-0.13333 -11.99997,-0.66666 0.53333,4.39999 0.66667,7.86665 0.66667,13.99996 v 76.53314 c 0,5.99999 -0.26667,11.19997 -0.8,15.33329 h 14.93329 z m 0,-81.73313 h 19.59995 v 68.39983 h -19.59995 z m 259.73307,17.06663 h -25.4666 c -5.33332,0 -6.93332,-0.13334 -9.59998,-0.53334 v 12.66664 c 3.86666,-0.4 5.86666,-0.53333 9.86665,-0.53333 h 25.19993 v 6.66665 h -21.99994 c -4.26666,0 -7.19998,-0.13334 -9.73331,-0.53334 v 12.13331 c 2.26666,-0.26667 3.73332,-0.4 7.86665,-0.53334 l -8.26665,7.06665 c 5.06665,3.33333 8.79998,6.53332 14.93329,13.06664 -9.19997,4.39998 -17.86662,7.46664 -24.6666,8.93331 l 6.26665,13.19996 c 1.33333,-0.66666 2.79999,-1.46666 4.26666,-1.99999 5.99998,-2.53333 5.99998,-2.53333 13.06663,-5.99999 1.33333,4.39999 2.13333,8.26665 2.79999,13.86663 7.86665,0.26667 9.33331,0.26667 11.99997,0.26667 13.06664,0 16.93329,-2.93333 16.93329,-13.06663 v -13.19997 c 0,-1.46666 -0.13333,-3.73332 -0.13333,-4.39999 -0.13333,-3.59999 -0.13333,-3.59999 -0.26667,-5.73332 8.79998,15.46663 19.86662,25.59994 39.9999,36.26658 3.86666,-6.13332 5.73332,-8.79998 9.06665,-12.5333 -11.46664,-5.06666 -17.46663,-8.53332 -24.79994,-14.26663 6.93331,-4.66666 11.99997,-8.79998 18.13329,-14.79997 l -8.93331,-6.53331 c 1.06666,0.13333 1.46666,0.13333 2.79999,0.13333 -0.4,-2.66666 -0.4,-3.99999 -0.4,-9.46664 v -8.53331 h 2.39999 c 3.86666,0 6.26665,0.13333 9.46665,0.66666 v -12.79997 c -2.53333,0.4 -4.66666,0.53334 -9.33331,0.53334 h -2.53333 v -7.59998 c 0,-4.53333 0,-6.93332 0.4,-9.86665 -3.33333,0.26667 -5.86665,0.4 -11.06664,0.4 h -24.79994 v -6.26665 h 34.79991 c 4.66666,0 7.73332,0.13334 11.73331,0.53333 v -13.59996 c -3.99999,0.53333 -9.33331,0.8 -15.59996,0.8 h -34.13325 v -1.86666 c 0,-3.86666 0.13333,-5.73332 0.66667,-7.99998 H 742.4291 c 0.53333,2.39999 0.66667,4.26665 0.66667,7.73331 v 2.13333 h -31.06659 c -8.53331,0 -12.79997,-0.13334 -17.06663,-0.66667 0.66667,4.53332 0.8,7.59998 0.8,16.79996 0,25.4666 -1.06666,41.59989 -3.59999,58.66652 -1.86666,12.26663 -3.86665,19.19995 -7.99998,27.06659 5.19999,4.39999 6.66665,5.99999 11.33331,11.99997 4.93332,-8.79997 7.59998,-16.26662 9.86664,-28.53326 3.33332,-17.46662 4.13332,-32.66658 4.26665,-73.06648 h 37.73324 v 6.26665 h -21.33328 c -4.66665,0 -7.06665,-0.13333 -9.59997,-0.53333 v 12.1333 c 2.93332,-0.4 6.39998,-0.53333 9.73331,-0.53333 h 21.19994 z m 0,29.33325 v 11.33331 c -11.99997,6.39998 -11.99997,6.39998 -16.39996,8.53331 l 7.99998,-8.39998 c -4.53332,-4.93332 -8.66664,-8.39998 -13.46663,-11.46664 z m 40.26656,0 c 1.2,0 1.6,0 2.66666,0 -4.26665,5.06666 -7.59998,7.99998 -14.93329,12.9333 -4.39999,-4.66665 -6.39998,-7.46664 -9.73331,-12.9333 z M 760.82905,483.6485 v -5.99999 H 782.829 v 5.99999 z m 0,11.59997 H 782.829 v 6.66665 h -21.99995 z m -13.46663,49.19987 c 0,2.79999 -0.66666,3.19999 -5.06665,3.19999 -3.59999,0 -8.53331,-0.4 -11.73331,-1.06666 6.26665,-3.06666 9.86665,-5.06666 16.79996,-9.19998 z m 266.26638,-78.7998 c 0.2667,-1.19999 0.4,-1.99999 0.6667,-4.26665 h 3.4666 c 4.1334,0 6.1333,0.13333 8.8,0.53333 v -8.39998 c -2.4,0.4 -4.5333,0.53333 -8.8,0.53333 h -15.0666 c 0.8,-1.86666 1.0667,-2.53333 1.6,-3.59999 h 14.4 c 3.7333,0 5.8666,0.13333 11.0666,0.4 v -10.26664 c -3.6,0.4 -7.4666,0.66666 -12.6666,0.66666 h -32.39995 c -4.93332,0 -8.66665,-0.13333 -11.06664,-0.53333 0.26666,4.66666 0.4,7.46665 0.4,12.26664 v 31.19992 c 0,4.53332 -0.13334,8.26664 -0.4,10.79997 3.99999,-0.13333 7.46665,-0.26667 10.39997,-0.26667 h 35.06662 c 3.5999,0 8.2666,0.26667 10.6666,0.53334 v -10.13331 c -2.2667,0.26666 -2.6667,0.26666 -5.6,0.4 1.4667,-2.26666 2.8,-3.73333 5.0667,-5.46665 -4.9334,-1.73333 -10.1333,-4.53333 -13.2,-7.19999 h 5.0667 c 2.6666,0 3.9999,0.13334 7.7333,0.4 v -8.13331 c -1.8667,0.4 -3.7334,0.53333 -8.6667,0.53333 z m -18.26661,0 c -0.66667,0 -0.66667,0 -0.93334,0 2,-1.73333 2.66666,-2.53332 3.99999,-4.26665 h 6.53336 c -0.2667,2.53332 -0.4,3.06666 -0.5334,4.26665 z m 5.46661,7.19998 c -3.19995,3.59999 -6.66661,5.46666 -13.33326,7.19999 2.26666,1.73332 3.33332,2.93332 5.19999,5.46665 h -6.93332 v -35.06658 h 9.86664 c -1.86666,4.39999 -4.53332,7.86665 -8.13331,10.66664 3.86666,2.26666 4.39999,2.66666 6.13332,4.53332 -2.26666,-0.13333 -3.33333,-0.13333 -4.93332,-0.4 v 7.99998 c 1.73332,-0.26666 3.99999,-0.4 6.66665,-0.4 z m -3.46662,12.66664 c 5.46662,-2.79999 8.66662,-5.46665 11.73332,-9.59998 2.6666,3.46666 7.0666,7.33332 11.3333,9.59998 z m 49.06652,27.99993 v -4.39999 h 29.3333 c 5.4666,0 10.2666,0.13333 15.1999,0.66666 v -11.86663 c -2.2666,0.4 -5.7333,0.66666 -11.5999,0.66666 h -95.19979 c -7.06664,0 -10.39997,-0.13333 -14.13329,-0.66666 v 11.99997 c 4.26665,-0.53334 8.26664,-0.8 14.13329,-0.8 h 28.79989 c -0.1333,2.39999 -0.1333,2.39999 -0.4,4.39999 h -18.39991 c -5.86665,0 -10.93331,-0.13334 -13.59997,-0.4 0.26667,4.13332 0.4,7.86664 0.4,11.59997 v 25.0666 c 0,4.66666 -0.26666,9.19998 -0.66666,12.9333 h 14.26663 v -4.66665 h 71.33311 v 4.79998 h 14.8 c -0.4,-3.06666 -0.6667,-8.53331 -0.6667,-13.06663 v -24.13327 c 0,-5.06666 0.1334,-9.06664 0.5334,-12.66664 -2.6667,0.4 -7.7333,0.53334 -13.7333,0.53334 z m -12.3999,0 h -8.8 c 0.1333,-1.06667 0.1333,-1.46667 0.2666,-4.39999 h 8.5334 z m -27.6,22.79994 c 9.3333,-3.06666 14.8,-7.73332 17.0666,-14.5333 h 10.5334 v 5.19999 c 0,5.06665 3.0666,6.39998 14.5332,6.39998 13.3333,0 15.3333,-0.93333 16.6667,-7.99998 -3.8667,-0.8 -6.5333,-1.86666 -9.6,-3.59999 h 10.2666 v 14.5333 z m -11.86661,0 v -14.5333 h 15.33331 c -2.6667,3.73333 -7.3333,5.86665 -14.13332,6.66665 4.13333,2.66666 6.26662,4.66666 8.93332,7.86665 z m 51.86651,-14.5333 h 9.0667 c -0.2667,3.59999 -0.6667,3.99999 -4.5334,3.99999 -3.8666,0 -4.5333,-0.4 -4.5333,-2.66666 z m 19.4666,22.93328 v 3.86665 h -71.33311 v -3.86665 z m -4,-94.26643 v 5.73332 c 0,5.46665 1.6,6.26665 11.4667,6.26665 9.6,0 12.4,-0.4 14.6666,-2.13333 2.1333,-1.73333 3.3333,-5.06665 3.8667,-11.3333 -3.6,-0.66667 -6.8,-1.73333 -9.7333,-3.33333 -0.4,7.99998 -0.6667,8.39998 -5.3334,8.39998 -3.5999,0 -3.8666,-0.13333 -3.8666,-1.99999 v -4.93332 c 0,-3.33333 0.1333,-4.66666 0.5333,-6.66665 -2.5333,0.4 -5.2,0.53333 -8.9333,0.53333 h -15.4666 c -4.1333,0 -6.4,-0.13333 -9.2,-0.53333 0.1333,1.19999 0.2667,2.26666 0.2667,3.59999 0,2.66666 -1.2,5.99998 -2.6667,7.86664 -1.8667,2.13333 -4.1333,3.33333 -8.2666,4.53333 2.8,2.66666 3.7333,3.99999 6,7.99998 -1.3334,0 -2.1334,-0.13334 -3.6,-0.4 v 9.46664 c 1.8666,-0.26667 3.0666,-0.4 5.9999,-0.4 4.4,5.59999 6.1334,7.33331 10.4,10.53331 -5.6,1.86666 -10.4,2.93332 -16.9333,3.73332 2.5334,3.86666 3.8667,6.39998 5.0667,9.86664 8.4,-1.59999 15.1999,-3.86666 22.3999,-7.19998 7.8667,3.59999 15.3333,5.59999 27.7333,7.59998 2.1333,-5.33332 2.6666,-6.26665 5.6,-10.39997 -10,-0.66667 -15.6,-1.46667 -22.4,-3.46666 5.4667,-3.86666 9.6,-7.46665 12.9333,-11.19997 1.0667,-1.2 1.4667,-1.46667 2.5334,-2.4 l -6.1334,-6.13331 c -1.8666,0.4 -3.4666,0.53333 -8.1333,0.53333 h -31.8666 c 0,0 -0.1333,0 -0.2666,0 2.6666,-1.06667 4.6666,-2.53333 6.6666,-4.26666 2.9334,-2.93332 4.1333,-5.19998 4.6667,-9.86664 z m 6.2667,22.53328 c -3.2,2.39999 -6.1333,4.26665 -10,6.26665 -3.3333,-1.6 -5.7333,-3.46666 -8.5333,-6.26665 z m 292.1329,34.26658 c 4.1333,2.26666 6,3.19999 11.3333,5.33332 1.8667,-5.59999 2.6667,-7.33332 5.7333,-12.39997 -6.7999,-2 -10.2666,-3.33333 -16.1332,-6.39999 3.8666,-3.19999 5.0666,-4.26665 10.2666,-9.33331 l -10.6666,-6.66665 c -2.6667,4.13333 -4.4,5.86666 -9.0667,9.86665 -4.5333,-3.73333 -6.4,-5.59999 -9.7333,-10.26664 h 17.8666 c 6.2667,0 9.3333,0.13333 13.2,0.66666 v -12.79997 c -4,0.53334 -7.6,0.66667 -13.7333,0.66667 h -30.5333 c 0.8,-2.13333 1.2,-3.46666 2.2667,-6.79998 h 29.1999 c 6.6667,0 9.8667,0.13333 14.6667,0.53333 v -13.3333 c -4.4,0.66666 -8.8,0.8 -16.2667,0.8 h -31.5999 v -0.93333 c 0,-3.6 0.2667,-5.59999 0.6667,-7.99998 h -16.4 c 0.5333,2.53332 0.6667,4.53332 0.6667,7.99998 v 0.93333 h -26.6666 c -7.2,0 -11.8667,-0.13334 -16.4,-0.66667 0.6667,4.79999 0.6667,6.26665 0.6667,16.66663 0.1333,4.26665 0.1333,11.86663 0.1333,14.13329 0,2.26666 0,3.73333 0,4.66666 -3.0666,-8.79998 -5.2,-13.46664 -9.4666,-21.19995 l -10.1333,6.13332 c 4.6666,8.39998 7.2,14.79996 9.9999,24.79994 l 9.6,-6.39999 c -0.1333,6.13332 -0.1333,8.13331 -0.4,12.66664 -8,4.39998 -15.1999,7.46664 -19.9999,8.39997 l 4.1333,14.1333 c 0.9333,-0.66666 1.8667,-1.19999 2.5333,-1.46666 3.0667,-1.6 8.2667,-4.53332 12.1333,-6.93332 -2.2666,18.26662 -6,27.8666 -14.9333,38.53324 4.8,3.73332 6.6667,5.73332 10.6667,10.79997 6.6666,-8.79998 9.7333,-14.39996 12.6666,-23.06661 3.2,-8.93331 5.0667,-19.06661 6.1333,-32.79991 1.4667,3.19999 2,4.26665 3.0667,7.59998 4.2666,-2.26666 5.6,-3.06666 8.1333,-4.66666 v 12.9333 c 0,5.99999 -0.1333,8.13332 -0.4,11.46664 0.8,0 0.8,0 2,-0.13333 -4.6667,7.33331 -10,12.1333 -20.6666,18.39995 3.7333,2.93333 5.3333,4.66665 9.2,9.73331 10.7999,-7.33332 16.2666,-12.66664 23.9999,-23.33328 l -8.8,-4.93332 c 2.5333,-0.13333 3.3333,-0.13333 6,-0.13333 h 14.5333 v 13.99997 c 0,2.79999 -0.6667,3.19999 -5.0667,3.19999 -4.2666,0 -8.9333,-0.4 -14.5333,-1.33333 2.2667,5.19998 2.9334,8.13331 3.3334,13.19996 5.4666,0.4 10.2666,0.53334 15.0666,0.53334 6.4,0 9.3333,-0.53334 11.7333,-2.26667 2.2667,-1.46666 3.4667,-4.39998 3.4667,-8.39997 v -18.93329 h 15.5999 l -8.6666,6.13332 c 9.0666,10.39997 15.1999,15.59996 26.7999,22.39994 2.4,-4.53332 4.8,-8.13331 7.7333,-11.59997 -9.7333,-4.66665 -15.3333,-8.79998 -22.7999,-16.93329 3.6,0.13333 5.4666,0.13333 8.2666,0.4 -0.2666,-3.19999 -0.4,-5.06665 -0.4,-11.59997 z m -45.5999,-16.5333 c 3.4667,-4.26665 6,-7.99997 8.9334,-13.33329 h 5.0666 c 4.2667,6.79998 5.8667,8.93331 10.1333,13.33329 z m -31.1999,-31.59991 h 34.2666 c -0.8,3.06665 -1.3333,4.53332 -2.2667,6.79998 h -16.3999 c -6.2667,0 -9.0667,-0.13333 -12.8,-0.53333 v 12.5333 c 3.3333,-0.4 6.4,-0.53333 12.2666,-0.53333 h 11.2 c -2.4,3.86665 -4.1333,5.99998 -7.3333,9.3333 -2.2667,-2.39999 -4.4,-4.26665 -9.2,-8.13331 l -8.2666,6.93332 c 4.4,3.06666 6.2666,4.66665 9.4666,7.99998 -4,2.79999 -6.8,4.53332 -11.4666,6.66665 0.4,-7.99998 0.5333,-14.1333 0.5333,-22.13328 z m 23.4666,42.26655 h 39.9999 v 5.59999 h -39.9999 z m 0,15.06663 h 39.9999 v 5.73332 h -39.9999 z"
     id="text1"
     aria-label="加康醫療" />
</svg>
